<?xml version="1.0" standalone="no"?>
<!DOCTYPE svg PUBLIC "-//W3C//DTD SVG 20010904//EN"
 "http://www.w3.org/TR/2001/REC-SVG-20010904/DTD/svg10.dtd">
<svg version="1.0" xmlns="http://www.w3.org/2000/svg"
 width="3304.000000pt" height="600.000000pt" viewBox="0 0 3304.000000 600.000000"
 preserveAspectRatio="xMidYMid meet">

<g transform="translate(0.000000,600.000000) scale(0.100000,-0.100000)"
fill="#000000" stroke="none">
<path d="M11440 4652 c-18 -15 -22 -28 -22 -67 2 -59 25 -95 70 -111 45 -14
105 -76 165 -166 47 -73 59 -83 97 -79 23 3 50 40 50 71 0 71 -136 260 -240
332 -60 42 -87 47 -120 20z"/>
<path d="M16310 4628 c-12 -13 -50 -80 -86 -150 -36 -71 -70 -128 -77 -128
-179 -5 -369 -21 -405 -35 -77 -31 -106 -99 -57 -131 22 -14 35 -15 98 -6 103
16 307 26 307 15 0 -5 -25 -67 -55 -138 -121 -283 -280 -735 -377 -1070 -33
-115 -40 -157 -42 -233 -1 -91 0 -94 27 -118 40 -34 64 -31 72 9 20 89 143
498 209 692 120 353 323 851 350 860 6 2 76 9 156 15 266 20 324 36 356 95 23
43 11 99 -28 128 -23 18 -31 19 -54 8 -14 -6 -28 -20 -31 -31 -4 -14 -20 -22
-60 -30 -56 -12 -265 -30 -272 -24 -2 2 17 49 42 104 26 55 47 111 47 123 0
31 -39 67 -73 67 -14 0 -36 -10 -47 -22z"/>
<path d="M22033 4579 c-12 -4 -29 -19 -39 -33 -21 -33 -14 -70 31 -165 19 -40
35 -74 35 -75 0 -2 -87 -6 -192 -9 -106 -3 -201 -8 -211 -12 -20 -9 -31 -45
-22 -75 15 -49 44 -55 279 -60 l219 -5 48 -111 c65 -149 66 -156 9 -166 -256
-49 -676 -177 -721 -219 -53 -50 -25 -113 49 -113 20 0 105 21 187 48 162 51
471 132 546 142 l47 6 21 -57 c25 -66 85 -264 96 -313 l7 -34 -49 8 c-94 14
-294 9 -378 -10 -174 -39 -311 -129 -397 -260 -32 -50 -38 -67 -38 -113 0
-102 67 -181 214 -253 125 -62 188 -75 356 -74 212 0 359 41 590 160 138 71
179 125 129 169 -17 16 -24 17 -47 8 -331 -139 -502 -186 -677 -186 -163 0
-282 38 -374 120 -39 34 -43 43 -37 67 10 42 112 138 179 170 32 15 89 34 125
42 116 24 329 15 508 -22 41 -8 74 22 74 69 0 39 -77 338 -118 458 l-30 87 66
16 c78 19 102 38 102 81 0 24 -6 34 -25 43 -30 14 -104 15 -157 3 l-36 -8 -50
118 -50 119 57 0 c44 0 62 5 79 20 27 26 28 40 1 74 -30 38 -71 56 -144 63
l-64 6 -29 66 c-16 36 -33 82 -37 101 -9 40 -30 86 -45 95 -24 15 -67 22 -87
14z"/>
<path d="M19105 4541 c-11 -5 -27 -17 -37 -27 -30 -34 -98 -169 -137 -275 -29
-76 -45 -105 -58 -107 -11 -2 -91 16 -179 39 -208 54 -200 52 -229 45 -33 -8
-48 -40 -40 -83 5 -30 13 -38 59 -58 29 -13 104 -36 167 -50 185 -44 189 -45
189 -58 0 -23 -89 -335 -141 -495 -28 -86 -80 -230 -115 -319 -35 -89 -64
-173 -64 -187 0 -33 41 -62 67 -47 39 20 106 105 138 175 45 96 139 383 211
644 67 242 53 226 164 176 122 -56 165 -115 164 -229 -1 -123 -94 -365 -210
-542 -114 -175 -281 -353 -331 -353 -7 0 -28 25 -48 55 -29 45 -40 55 -63 55
-37 0 -52 -17 -52 -58 0 -57 22 -113 61 -154 33 -35 40 -38 90 -38 85 0 146
36 264 154 176 177 363 491 422 710 23 86 22 246 -1 314 -34 101 -163 209
-301 252 -22 7 -43 15 -47 19 -11 10 36 126 104 257 32 63 58 123 58 133 0 22
-45 61 -69 60 -9 0 -25 -4 -36 -8z"/>
<path d="M20180 4480 c-11 -11 -20 -33 -20 -48 0 -81 90 -325 124 -338 29 -11
65 6 82 37 14 29 14 37 0 98 -33 139 -67 236 -87 254 -28 23 -74 22 -99 -3z"/>
<path d="M10685 4445 c-31 -30 -31 -52 0 -176 14 -54 28 -125 31 -157 l6 -58
-86 -12 c-149 -22 -376 -96 -422 -139 -42 -38 -23 -109 34 -127 11 -4 66 12
133 38 116 46 344 104 357 92 10 -11 15 -333 7 -439 l-7 -92 -101 -33 c-121
-39 -269 -112 -387 -190 -122 -80 -297 -258 -338 -342 -37 -75 -49 -157 -33
-216 12 -45 71 -106 119 -126 96 -38 311 34 478 160 183 138 335 358 380 548
13 54 24 79 38 87 30 16 249 15 316 -2 216 -53 410 -235 410 -386 0 -129 -114
-209 -338 -237 -102 -12 -120 -25 -99 -68 15 -31 42 -38 148 -39 99 -1 220 26
284 63 110 65 160 163 153 301 -6 117 -52 211 -151 310 -121 121 -266 190
-447 215 -76 11 -220 7 -255 -6 -10 -4 -13 49 -13 250 l0 255 61 6 c34 3 127
2 207 -4 128 -8 149 -7 180 7 43 21 53 67 21 96 -28 25 -190 46 -362 46 l-136
0 -7 62 c-4 34 -20 113 -36 177 -23 91 -35 121 -55 139 -34 29 -60 28 -90 -3z
m15 -1255 c0 -27 -47 -128 -91 -196 -98 -150 -274 -297 -436 -364 -65 -27 -79
-30 -108 -20 -78 26 -43 121 99 268 117 121 236 200 425 283 90 40 111 45 111
29z"/>
<path d="M19955 4435 c-17 -16 -25 -35 -25 -58 0 -77 80 -296 125 -341 23 -22
58 -20 81 5 30 33 23 108 -20 216 -20 51 -36 100 -36 108 0 25 -28 73 -49 85
-30 16 -50 12 -76 -15z"/>
<path d="M13377 4408 c-61 -47 -166 -531 -192 -888 -8 -107 9 -283 36 -380 28
-101 82 -201 136 -251 61 -56 155 -98 234 -105 158 -15 409 97 614 275 93 81
195 199 195 226 0 24 -29 55 -51 55 -9 0 -67 -41 -130 -91 -222 -178 -331
-246 -454 -285 -228 -73 -354 12 -411 276 -16 77 -18 300 -4 420 17 137 69
405 106 548 19 73 34 142 34 152 0 23 -45 60 -74 60 -12 0 -30 -6 -39 -12z"/>
<path d="M19630 4273 c-19 -25 -21 -36 -15 -88 21 -191 160 -568 226 -618 35
-25 67 -15 84 27 18 42 9 79 -59 258 -31 80 -69 198 -85 262 -32 125 -34 130
-64 164 -28 30 -61 28 -87 -5z"/>
<path d="M16783 4090 c-27 -16 -33 -26 -33 -54 0 -44 11 -51 95 -65 100 -17
207 -47 293 -83 72 -30 74 -32 51 -43 -42 -22 -219 -81 -374 -125 -147 -41
-185 -61 -185 -96 0 -7 34 -47 75 -89 93 -95 145 -192 152 -288 l6 -65 -51 13
c-175 46 -382 17 -494 -68 -126 -96 -129 -292 -7 -418 66 -67 125 -93 214 -94
60 0 81 5 140 34 87 43 184 139 245 244 25 42 49 77 54 77 30 1 193 -153 233
-220 21 -36 54 -39 83 -10 33 33 25 71 -30 154 -53 79 -111 136 -196 193 l-51
34 5 55 c9 114 -44 267 -128 368 -22 27 -39 50 -38 51 2 2 56 17 120 34 146
39 321 97 370 122 21 11 42 28 48 38 15 28 12 77 -5 112 -31 59 -188 139 -364
185 -115 30 -184 31 -228 4z m-11 -1040 l48 -12 -32 -61 c-68 -126 -180 -217
-269 -217 -84 0 -155 63 -165 147 -9 72 57 134 165 154 59 10 192 5 253 -11z"/>
<path d="M7515 3784 c-175 -37 -338 -124 -481 -257 l-56 -52 29 -28 29 -27 55
40 c123 92 261 151 398 170 154 21 351 -15 706 -130 239 -77 332 -98 470 -106
260 -15 460 75 596 270 l50 70 -31 31 c-30 29 -31 29 -42 10 -7 -11 -34 -44
-62 -73 -92 -98 -242 -151 -424 -152 -123 0 -206 18 -457 100 -246 80 -337
105 -460 125 -82 14 -272 19 -320 9z"/>
<path d="M24305 3784 c-175 -37 -338 -124 -481 -257 l-56 -52 29 -28 29 -27
55 40 c123 92 261 151 398 170 154 21 351 -15 706 -130 239 -77 332 -98 470
-106 260 -15 460 75 596 270 l50 70 -31 31 c-30 29 -31 29 -42 10 -7 -11 -34
-44 -62 -73 -92 -98 -242 -151 -424 -152 -123 0 -206 18 -457 100 -246 80
-337 105 -460 125 -82 14 -272 19 -320 9z"/>
</g>
</svg>
